<svg xmlns="http://www.w3.org/2000/svg" viewBox="0 0 112.04 112.04"><defs><style>.cls-1{fill:#95989a;}</style></defs><title>Risorsa 11</title><g id="Livello_2" data-name="Livello 2"><g id="_1" data-name="1"><path class="cls-1" d="M65.28,47.4a11.72,11.72,0,0,1,2.87,8.46,12.13,12.13,0,1,1-24.26.06,12.4,12.4,0,0,1,3.74-8.84,11.38,11.38,0,0,1,8-3.29h.33C60,43.91,63.18,45.16,65.28,47.4Z"/><path class="cls-1" d="M69.85,26.64H42.19A14.64,14.64,0,0,0,27.57,41.27v29.5A14.64,14.64,0,0,0,42.19,85.4H69.85A14.64,14.64,0,0,0,84.47,70.77V41.27A14.64,14.64,0,0,0,69.85,26.64Zm3,36.33a18.64,18.64,0,0,1-3.94,5.88A18,18,0,0,1,56,74.21,18.31,18.31,0,0,1,37.73,55.92a18.63,18.63,0,0,1,5.61-13.27,17.48,17.48,0,0,1,12.77-5c5.69.16,10.42,2.08,13.67,5.55A17.72,17.72,0,0,1,74.31,56,19.12,19.12,0,0,1,72.83,63Zm1.92-21.58A4.27,4.27,0,1,1,79,37.12,4.27,4.27,0,0,1,74.75,41.39Z"/><path class="cls-1" d="M56,0a56,56,0,1,0,56,56A56,56,0,0,0,56,0ZM89.51,70.77A19.69,19.69,0,0,1,69.85,90.44H42.19A19.69,19.69,0,0,1,22.53,70.77V41.27A19.69,19.69,0,0,1,42.19,21.6H69.85A19.69,19.69,0,0,1,89.51,41.27Z"/></g></g></svg>