<svg xmlns="http://www.w3.org/2000/svg" viewBox="0 0 112.4 112.4"><defs><style>.cls-1{fill:#95989a;}</style></defs><title>Risorsa 8</title><g id="Livello_2" data-name="Livello 2"><g id="_1" data-name="1"><path class="cls-1" d="M56.2,0a56.2,56.2,0,1,0,56.2,56.19A56.2,56.2,0,0,0,56.2,0ZM67.71,35.43H89v7.11H67.71ZM44,80.46H20.31V33.08H44A11.85,11.85,0,0,1,50.18,55a12,12,0,0,1,8.06,11.21A14.29,14.29,0,0,1,44,80.46ZM70.06,63.88c.33,5.3,3.82,9.47,8.32,9.47s6.92-3,7.79-7.12h9.6c-1.61,8.12-6.71,14.23-17.39,14.23S60.59,72.54,60.59,62.67,67.64,45,78.38,45s17.73,7.92,17.73,17.71v1.21Z"/><path class="cls-1" d="M86.17,59.12H70.53a7.71,7.71,0,0,1,7.85-7C82.48,52.07,85.5,55,86.17,59.12Z"/><path class="cls-1" d="M48.71,65.29c0,2.62-2.08,5.7-4.7,5.7H29.77V59.12H41.59C44.21,59.12,48.71,60.26,48.71,65.29Z"/><path class="cls-1" d="M46.36,47.3a4.79,4.79,0,0,1-4.77,4.77H29.77V42.54H41.59A4.79,4.79,0,0,1,46.36,47.3Z"/></g></g></svg>